<mxfile host="app.diagrams.net" modified="2023-12-29T19:55:29.608Z" agent="Mozilla/5.0 (Windows NT 10.0; Win64; x64) AppleWebKit/537.36 (KHTML, like Gecko) Chrome/120.0.0.0 Safari/537.36" etag="tPdQUbTWeW2Ry3lafy6k" version="22.1.16" type="device">
  <diagram name="PaginÄƒ-1" id="NThEuFbMpB3EhT5pXB6g">
    <mxGraphModel dx="1050" dy="530" grid="0" gridSize="10" guides="1" tooltips="1" connect="1" arrows="1" fold="1" page="1" pageScale="1" pageWidth="1169" pageHeight="1654" math="0" shadow="0">
      <root>
        <mxCell id="0" />
        <mxCell id="1" parent="0" />
        <mxCell id="jeQj2ist0iVrBUtP1uvR-15" value="" style="endArrow=classic;html=1;rounded=0;entryX=0.571;entryY=0;entryDx=0;entryDy=0;exitX=0.5;exitY=1;exitDx=0;exitDy=0;entryPerimeter=0;" edge="1" parent="1" source="jeQj2ist0iVrBUtP1uvR-3" target="jeQj2ist0iVrBUtP1uvR-4">
          <mxGeometry width="50" height="50" relative="1" as="geometry">
            <mxPoint x="290" y="190" as="sourcePoint" />
            <mxPoint x="290" y="420" as="targetPoint" />
            <Array as="points" />
          </mxGeometry>
        </mxCell>
        <mxCell id="jeQj2ist0iVrBUtP1uvR-1" value="" style="ellipse;html=1;shape=startState;fillColor=#000000;strokeColor=#180101;" vertex="1" parent="1">
          <mxGeometry x="265" y="40" width="30" height="30" as="geometry" />
        </mxCell>
        <mxCell id="jeQj2ist0iVrBUtP1uvR-2" value="" style="edgeStyle=orthogonalEdgeStyle;html=1;verticalAlign=bottom;endArrow=open;endSize=8;strokeColor=#0A0A0A;rounded=0;" edge="1" parent="1">
          <mxGeometry relative="1" as="geometry">
            <mxPoint x="280" y="130" as="targetPoint" />
            <mxPoint x="280" y="60" as="sourcePoint" />
          </mxGeometry>
        </mxCell>
        <mxCell id="jeQj2ist0iVrBUtP1uvR-3" value="" style="ellipse;whiteSpace=wrap;html=1;aspect=fixed;fillColor=#e1d5e7;strokeColor=#9673a6;" vertex="1" parent="1">
          <mxGeometry x="245" y="130" width="70" height="70" as="geometry" />
        </mxCell>
        <mxCell id="jeQj2ist0iVrBUtP1uvR-4" value="" style="ellipse;whiteSpace=wrap;html=1;aspect=fixed;fillColor=#e1d5e7;strokeColor=#9673a6;" vertex="1" parent="1">
          <mxGeometry x="240" y="420" width="70" height="70" as="geometry" />
        </mxCell>
        <mxCell id="jeQj2ist0iVrBUtP1uvR-5" value="" style="ellipse;whiteSpace=wrap;html=1;aspect=fixed;fillColor=#e1d5e7;strokeColor=#9673a6;" vertex="1" parent="1">
          <mxGeometry x="690" y="420" width="70" height="70" as="geometry" />
        </mxCell>
        <mxCell id="jeQj2ist0iVrBUtP1uvR-6" value="&lt;b&gt;&lt;font style=&quot;font-size: 15px;&quot; color=&quot;#0a0a0a&quot;&gt;S1&lt;/font&gt;&lt;/b&gt;" style="text;html=1;strokeColor=none;fillColor=none;align=center;verticalAlign=middle;whiteSpace=wrap;rounded=0;" vertex="1" parent="1">
          <mxGeometry x="250" y="150" width="60" height="30" as="geometry" />
        </mxCell>
        <mxCell id="jeQj2ist0iVrBUtP1uvR-7" value="&lt;b&gt;&lt;font style=&quot;font-size: 15px;&quot; color=&quot;#0a0a0a&quot;&gt;S2&lt;/font&gt;&lt;/b&gt;" style="text;html=1;strokeColor=none;fillColor=none;align=center;verticalAlign=middle;whiteSpace=wrap;rounded=0;" vertex="1" parent="1">
          <mxGeometry x="245" y="440" width="60" height="30" as="geometry" />
        </mxCell>
        <mxCell id="jeQj2ist0iVrBUtP1uvR-8" value="&lt;b&gt;&lt;font style=&quot;font-size: 15px;&quot; color=&quot;#0a0a0a&quot;&gt;S3&lt;/font&gt;&lt;/b&gt;" style="text;html=1;strokeColor=none;fillColor=none;align=center;verticalAlign=middle;whiteSpace=wrap;rounded=0;" vertex="1" parent="1">
          <mxGeometry x="695" y="440" width="60" height="30" as="geometry" />
        </mxCell>
        <mxCell id="jeQj2ist0iVrBUtP1uvR-16" value="" style="endArrow=classic;html=1;rounded=0;exitX=1;exitY=0.5;exitDx=0;exitDy=0;entryX=0;entryY=0.5;entryDx=0;entryDy=0;" edge="1" parent="1" source="jeQj2ist0iVrBUtP1uvR-4" target="jeQj2ist0iVrBUtP1uvR-5">
          <mxGeometry width="50" height="50" relative="1" as="geometry">
            <mxPoint x="320" y="450" as="sourcePoint" />
            <mxPoint x="480" y="420" as="targetPoint" />
            <Array as="points" />
          </mxGeometry>
        </mxCell>
        <mxCell id="jeQj2ist0iVrBUtP1uvR-19" value="" style="endArrow=classic;html=1;rounded=0;entryX=0.5;entryY=1;entryDx=0;entryDy=0;exitX=0.571;exitY=0;exitDx=0;exitDy=0;exitPerimeter=0;" edge="1" parent="1" source="jeQj2ist0iVrBUtP1uvR-5" target="jeQj2ist0iVrBUtP1uvR-25">
          <mxGeometry width="50" height="50" relative="1" as="geometry">
            <mxPoint x="720" y="420" as="sourcePoint" />
            <mxPoint x="560" y="220" as="targetPoint" />
            <Array as="points" />
          </mxGeometry>
        </mxCell>
        <mxCell id="jeQj2ist0iVrBUtP1uvR-21" value="&lt;b&gt;After 1190ms&lt;/b&gt;" style="text;html=1;strokeColor=none;fillColor=none;align=center;verticalAlign=middle;whiteSpace=wrap;rounded=0;" vertex="1" parent="1">
          <mxGeometry x="300" y="270" width="60" height="30" as="geometry" />
        </mxCell>
        <mxCell id="jeQj2ist0iVrBUtP1uvR-23" value="&lt;b&gt;After 1190ms&lt;/b&gt;" style="text;html=1;strokeColor=none;fillColor=none;align=center;verticalAlign=middle;whiteSpace=wrap;rounded=0;" vertex="1" parent="1">
          <mxGeometry x="485" y="420" width="60" height="30" as="geometry" />
        </mxCell>
        <mxCell id="jeQj2ist0iVrBUtP1uvR-24" value="&lt;b&gt;After 1190ms&lt;/b&gt;" style="text;html=1;strokeColor=none;fillColor=none;align=center;verticalAlign=middle;whiteSpace=wrap;rounded=0;" vertex="1" parent="1">
          <mxGeometry x="635" y="260" width="60" height="30" as="geometry" />
        </mxCell>
        <mxCell id="jeQj2ist0iVrBUtP1uvR-25" value="" style="ellipse;whiteSpace=wrap;html=1;aspect=fixed;fillColor=#e1d5e7;strokeColor=#9673a6;" vertex="1" parent="1">
          <mxGeometry x="695" y="130" width="70" height="70" as="geometry" />
        </mxCell>
        <mxCell id="jeQj2ist0iVrBUtP1uvR-26" value="&lt;b&gt;&lt;font style=&quot;font-size: 15px;&quot; color=&quot;#0a0a0a&quot;&gt;S4&lt;/font&gt;&lt;/b&gt;" style="text;html=1;strokeColor=none;fillColor=none;align=center;verticalAlign=middle;whiteSpace=wrap;rounded=0;" vertex="1" parent="1">
          <mxGeometry x="700" y="150" width="60" height="30" as="geometry" />
        </mxCell>
        <mxCell id="jeQj2ist0iVrBUtP1uvR-27" value="" style="endArrow=classic;html=1;rounded=0;entryX=1;entryY=0.5;entryDx=0;entryDy=0;exitX=0;exitY=0.5;exitDx=0;exitDy=0;" edge="1" parent="1" source="jeQj2ist0iVrBUtP1uvR-25" target="jeQj2ist0iVrBUtP1uvR-3">
          <mxGeometry width="50" height="50" relative="1" as="geometry">
            <mxPoint x="690" y="170" as="sourcePoint" />
            <mxPoint x="550" y="140" as="targetPoint" />
          </mxGeometry>
        </mxCell>
        <mxCell id="jeQj2ist0iVrBUtP1uvR-28" value="&lt;b&gt;After 1190ms&lt;/b&gt;" style="text;html=1;strokeColor=none;fillColor=none;align=center;verticalAlign=middle;whiteSpace=wrap;rounded=0;" vertex="1" parent="1">
          <mxGeometry x="450" y="130" width="60" height="30" as="geometry" />
        </mxCell>
        <mxCell id="jeQj2ist0iVrBUtP1uvR-29" value="Idle" style="text;html=1;strokeColor=none;fillColor=none;align=center;verticalAlign=middle;whiteSpace=wrap;rounded=0;" vertex="1" parent="1">
          <mxGeometry x="250" y="10" width="60" height="30" as="geometry" />
        </mxCell>
      </root>
    </mxGraphModel>
  </diagram>
</mxfile>
